<?xml version="1.0" encoding="UTF-8" standalone="no"?>
<!-- Created with Inkscape (http://www.inkscape.org/) -->

<svg
   xmlns:dc="http://purl.org/dc/elements/1.1/"
   xmlns:cc="http://creativecommons.org/ns#"
   xmlns:rdf="http://www.w3.org/1999/02/22-rdf-syntax-ns#"
   xmlns:svg="http://www.w3.org/2000/svg"
   xmlns="http://www.w3.org/2000/svg"
   xmlns:xlink="http://www.w3.org/1999/xlink"
   xmlns:sodipodi="http://sodipodi.sourceforge.net/DTD/sodipodi-0.dtd"
   xmlns:inkscape="http://www.inkscape.org/namespaces/inkscape"
   width="860"
   height="130"
   id="svg2"
   version="1.1"
   inkscape:version="0.48.3.1 r9886"
   sodipodi:docname="logo.svg">
  <defs
     id="defs4">
    <linearGradient
       id="linearGradient4043">
      <stop
         style="stop-color:#f0f0f0;stop-opacity:1;"
         offset="0"
         id="stop4045" />
      <stop
         style="stop-color:#f0f0f0;stop-opacity:0.13333334;"
         offset="1"
         id="stop4047" />
    </linearGradient>
    <linearGradient
       inkscape:collect="always"
       xlink:href="#linearGradient4043"
       id="linearGradient4049"
       x1="577.70624"
       y1="804.86169"
       x2="577.70624"
       y2="822.03131"
       gradientUnits="userSpaceOnUse" />
    <linearGradient
       inkscape:collect="always"
       xlink:href="#linearGradient4043"
       id="linearGradient4073"
       gradientUnits="userSpaceOnUse"
       x1="577.70624"
       y1="804.86169"
       x2="577.70624"
       y2="822.03131" />
    <linearGradient
       inkscape:collect="always"
       xlink:href="#linearGradient4043"
       id="linearGradient4077"
       gradientUnits="userSpaceOnUse"
       x1="577.70624"
       y1="804.86169"
       x2="577.70624"
       y2="822.03131" />
    <linearGradient
       inkscape:collect="always"
       xlink:href="#linearGradient4043"
       id="linearGradient4116"
       gradientUnits="userSpaceOnUse"
       x1="577.70624"
       y1="804.86169"
       x2="577.70624"
       y2="822.03131" />
    <linearGradient
       inkscape:collect="always"
       xlink:href="#linearGradient4043"
       id="linearGradient3068"
       gradientUnits="userSpaceOnUse"
       x1="577.70624"
       y1="804.86169"
       x2="577.70624"
       y2="822.03131"
       gradientTransform="translate(0,200)" />
    <linearGradient
       inkscape:collect="always"
       xlink:href="#linearGradient4043"
       id="linearGradient3131"
       gradientUnits="userSpaceOnUse"
       gradientTransform="translate(0,200)"
       x1="577.70624"
       y1="804.86169"
       x2="577.70624"
       y2="822.03131" />
    <linearGradient
       inkscape:collect="always"
       xlink:href="#linearGradient4043"
       id="linearGradient3137"
       gradientUnits="userSpaceOnUse"
       gradientTransform="translate(0,240)"
       x1="577.70624"
       y1="804.86169"
       x2="577.70624"
       y2="822.03131" />
    <linearGradient
       inkscape:collect="always"
       xlink:href="#linearGradient4043"
       id="linearGradient3177"
       gradientUnits="userSpaceOnUse"
       gradientTransform="translate(0,240)"
       x1="577.70624"
       y1="804.86169"
       x2="577.70624"
       y2="822.03131" />
    <linearGradient
       inkscape:collect="always"
       xlink:href="#linearGradient4043"
       id="linearGradient3183"
       gradientUnits="userSpaceOnUse"
       gradientTransform="translate(0,150)"
       x1="577.70624"
       y1="804.86169"
       x2="577.70624"
       y2="822.03131" />
    <linearGradient
       inkscape:collect="always"
       xlink:href="#linearGradient4043"
       id="linearGradient3223"
       gradientUnits="userSpaceOnUse"
       gradientTransform="translate(0,150)"
       x1="577.70624"
       y1="804.86169"
       x2="577.70624"
       y2="822.03131" />
    <linearGradient
       inkscape:collect="always"
       xlink:href="#linearGradient4043"
       id="linearGradient3229"
       gradientUnits="userSpaceOnUse"
       gradientTransform="translate(0,150)"
       x1="577.70624"
       y1="804.86169"
       x2="577.70624"
       y2="822.03131" />
  </defs>
  <sodipodi:namedview
     id="base"
     pagecolor="#ffffff"
     bordercolor="#666666"
     borderopacity="1.0"
     inkscape:pageopacity="0.0"
     inkscape:pageshadow="2"
     inkscape:zoom="1"
     inkscape:cx="336.88526"
     inkscape:cy="133.73698"
     inkscape:document-units="px"
     inkscape:current-layer="layer1"
     showgrid="false"
     inkscape:window-width="1920"
     inkscape:window-height="1061"
     inkscape:window-x="0"
     inkscape:window-y="19"
     inkscape:window-maximized="0" />
  <metadata
     id="metadata7">
    <rdf:RDF>
      <cc:Work
         rdf:about="">
        <dc:format>image/svg+xml</dc:format>
        <dc:type
           rdf:resource="http://purl.org/dc/dcmitype/StillImage" />
        <dc:title></dc:title>
      </cc:Work>
    </rdf:RDF>
  </metadata>
  <g
     inkscape:label="Layer 1"
     inkscape:groupmode="layer"
     id="layer1">
    <g
       id="g3326"
       inkscape:export-filename="/home/paolo/web/benext/italiano/images/png/logo.png"
       inkscape:export-xdpi="90"
       inkscape:export-ydpi="90">
      <path
         style="fill:#f0f0f0;fill-opacity:1;fill-rule:nonzero;stroke:none;opacity:0"
         d="M 1.300468,0 858.69953,0 C 859.41999,0 860,0.443537 860,0.994477 l 0,128.011043 C 860,129.55646 859.41999,130 858.69953,130 L 1.300468,130 C 0.580009,130 0,129.55646 0,129.00552 L 0,0.994477 C 0,0.443537 0.580009,0 1.300468,0 z"
         id="rect6562"
         inkscape:connector-curvature="0" />
      <g
         transform="matrix(1.0000157,0,0,0.95624997,-50.000784,-432.00882)"
         id="g6604">
        <g
           transform="matrix(1.1500646,0,0,0.95008339,50,87.60729)"
           id="g6564">
          <g
             transform="matrix(1,0,0,1.061621,54.125,114.86409)"
             style="font-size:18px;font-style:normal;font-weight:normal;line-height:125%;letter-spacing:0px;word-spacing:0px;fill:#ff950e;fill-opacity:1;stroke:none;font-family:Sans"
             id="flowRoot6566">
            <path
               d="m 35.875,299.5107 13.4375,0 16.96875,32 0,-32 11.40625,0 0,46.65625 -13.4375,0 -16.96875,-32 0,32 -11.40625,0 0,-46.65625"
               style="font-size:64px;font-variant:normal;font-weight:bold;font-stretch:normal;fill:#ff950e;font-family:DejaVu Sans;-inkscape-font-specification:DejaVu Sans Bold"
               id="path6581"
               inkscape:connector-curvature="0" />
            <path
               d="m 89.5,299.5107 32.46875,0 0,9.09375 -20.4375,0 0,8.6875 19.21875,0 0,9.09375 -19.21875,0 0,10.6875 21.125,0 0,9.09375 -33.15625,0 0,-46.65625"
               style="font-size:64px;font-variant:normal;font-weight:bold;font-stretch:normal;fill:#ff950e;font-family:DejaVu Sans;-inkscape-font-specification:DejaVu Sans Bold"
               id="path6583"
               inkscape:connector-curvature="0" />
            <path
               d="m 159.25,322.35445 16.1875,23.8125 -12.53125,0 L 152,330.22945 l -10.8125,15.9375 -12.59375,0 16.1875,-23.8125 -15.5625,-22.84375 12.5625,0 10.21875,15.03125 10.1875,-15.03125 12.625,0 -15.5625,22.84375"
               style="font-size:64px;font-variant:normal;font-weight:bold;font-stretch:normal;fill:#ff950e;font-family:DejaVu Sans;-inkscape-font-specification:DejaVu Sans Bold"
               id="path6585"
               inkscape:connector-curvature="0" />
            <path
               d="m 177.0625,299.5107 43,0 0,9.09375 -15.46875,0 0,37.5625 -12.03125,0 0,-37.5625 -15.5,0 0,-9.09375"
               style="font-size:64px;font-variant:normal;font-weight:bold;font-stretch:normal;fill:#ff950e;font-family:DejaVu Sans;-inkscape-font-specification:DejaVu Sans Bold"
               id="path6587"
               inkscape:connector-curvature="0" />
          </g>
          <g
             transform="translate(-73.9375,1.0077363)"
             style="font-size:18px;font-style:normal;font-weight:normal;line-height:125%;letter-spacing:0px;word-spacing:0px;fill:#257bd1;fill-opacity:1;stroke:none;font-family:Sans"
             id="flowRoot6574">
            <path
               d="m 92.5625,473.22945 c 2.395807,0 4.218722,-0.875 5.46875,-2.625 1.270803,-1.74999 1.906219,-4.29166 1.90625,-7.625 -3.1e-5,-3.33332 -0.635447,-5.87498 -1.90625,-7.625 -1.250028,-1.74998 -3.072943,-2.62498 -5.46875,-2.625 -2.395855,2e-5 -4.239603,0.88544 -5.53125,2.65625 -1.270851,1.75002 -1.906267,4.28127 -1.90625,7.59375 -1.7e-5,3.31251 0.635399,5.85417 1.90625,7.625 1.291647,1.75 3.135395,2.625 5.53125,2.625 M 85.125,450.5732 c 1.541649,-2.04164 3.24998,-3.54164 5.125,-4.5 1.874976,-0.97914 4.031224,-1.46872 6.46875,-1.46875 4.31247,3e-5 7.85413,1.71878 10.625,5.15625 2.77079,3.41669 4.15621,7.82294 4.15625,13.21875 -4e-5,5.39584 -1.38546,9.8125 -4.15625,13.25 -2.77087,3.41666 -6.31253,5.125 -10.625,5.125 -2.437526,0 -4.593774,-0.47917 -6.46875,-1.4375 -1.87502,-0.97917 -3.583351,-2.48958 -5.125,-4.53125 l 0,5.0625 -11.1875,0 0,-48.625 11.1875,0 0,18.75"
               style="font-size:64px;font-variant:normal;font-weight:bold;font-stretch:normal;fill:#257bd1;font-family:DejaVu Sans;-inkscape-font-specification:DejaVu Sans Bold"
               id="path6590"
               inkscape:connector-curvature="0" />
            <path
               d="m 154.75,462.85445 0,3.1875 -26.15625,0 c 0.27082,2.62501 1.21873,4.59376 2.84375,5.90625 1.62498,1.3125 3.89581,1.96875 6.8125,1.96875 2.35414,0 4.76039,-0.34375 7.21875,-1.03125 2.47913,-0.70833 5.0208,-1.77083 7.625,-3.1875 l 0,8.625 c -2.64587,1 -5.2917,1.75 -7.9375,2.25 -2.64586,0.52083 -5.29169,0.78125 -7.9375,0.78125 -6.33335,0 -11.26043,-1.60417 -14.78125,-4.8125 -3.5,-3.22916 -5.25,-7.74999 -5.25,-13.5625 0,-5.70831 1.71875,-10.19789 5.15625,-13.46875 3.45832,-3.2708 8.20832,-4.90622 14.25,-4.90625 5.49997,3e-5 9.8958,1.65628 13.1875,4.96875 3.31246,3.31252 4.96871,7.7396 4.96875,13.28125 m -11.5,-3.71875 c -3e-5,-2.12498 -0.62503,-3.83331 -1.875,-5.125 -1.22919,-1.31248 -2.84377,-1.96873 -4.84375,-1.96875 -2.16669,2e-5 -3.9271,0.61461 -5.28125,1.84375 -1.35418,1.20835 -2.19793,2.95835 -2.53125,5.25 l 14.53125,0"
               style="font-size:64px;font-variant:normal;font-weight:bold;font-stretch:normal;fill:#257bd1;font-family:DejaVu Sans;-inkscape-font-specification:DejaVu Sans Bold"
               id="path6592"
               inkscape:connector-curvature="0" />
          </g>
        </g>
        <g
           transform="matrix(0.86321296,0,0,0.77773136,308.43498,182.24941)"
           style="font-size:32px;font-style:normal;font-variant:normal;font-weight:200;font-stretch:normal;text-align:start;line-height:125%;letter-spacing:0px;word-spacing:0px;writing-mode:lr-tb;text-anchor:start;fill:#257bd1;fill-opacity:1;stroke:none;font-family:DejaVu Sans;-inkscape-font-specification:DejaVu Sans Ultra-Light"
           id="flowRoot6582">
          <path
             d="m 404.89062,445.7241 0,1.79687 c -1.06251,-0.96873 -2.19272,-1.68748 -3.39062,-2.15625 -1.20835,-0.47914 -2.4896,-0.71872 -3.84375,-0.71875 -2.93751,3e-5 -5.1823,0.92711 -6.73438,2.78125 -1.5625,1.85419 -2.34375,4.53648 -2.34375,8.04688 0,3.51042 0.78125,6.19792 2.34375,8.0625 1.55208,1.86458 3.79687,2.79687 6.73438,2.79687 1.35415,0 2.6354,-0.23958 3.84375,-0.71875 1.1979,-0.48958 2.32811,-1.21874 3.39062,-2.1875 l 0,1.89063 c -1.10418,0.75 -2.27606,1.3125 -3.51562,1.6875 -1.22918,0.375 -2.53126,0.5625 -3.90625,0.5625 -3.27084,0 -5.84376,-1.07813 -7.71875,-3.23438 -1.875,-2.16666 -2.8125,-5.11978 -2.8125,-8.85937 0,-3.74999 0.9375,-6.70311 2.8125,-8.85938 1.87499,-2.16664 4.44791,-3.24997 7.71875,-3.25 1.39582,3e-5 2.70832,0.19794 3.9375,0.59375 1.23956,0.38544 2.40102,0.97398 3.48437,1.76563"
             style="line-height:125%;fill:#257bd1;font-family:DejaVu Sans;-inkscape-font-specification:DejaVu Sans Ultra-Light"
             id="path6595"
             inkscape:connector-curvature="0" />
          <path
             d="m 425.28125,447.50535 c -1.50002,-1.9479 -3.52606,-2.92185 -6.07813,-2.92188 -2.55209,3e-5 -4.58334,0.97398 -6.09375,2.92188 -1.5,1.94793 -2.25,4.60418 -2.25,7.96875 0,3.34376 0.75,5.98959 2.25,7.9375 1.51041,1.94792 3.54166,2.92187 6.09375,2.92187 2.55207,0 4.57811,-0.97395 6.07813,-2.92187 1.48956,-1.94791 2.23435,-4.59374 2.23437,-7.9375 -2e-5,-3.36457 -0.74481,-6.02082 -2.23437,-7.96875 m -6.07813,-4.14063 c 3.02082,3e-5 5.43749,1.09378 7.25,3.28125 1.81248,2.19794 2.71873,5.14064 2.71875,8.82813 -2e-5,3.67709 -0.90627,6.60938 -2.71875,8.79687 -1.81251,2.19792 -4.22918,3.29688 -7.25,3.29688 -3.03125,0 -5.45834,-1.09375 -7.28125,-3.28125 -1.8125,-2.1875 -2.71875,-5.12499 -2.71875,-8.8125 0,-3.68749 0.90625,-6.63019 2.71875,-8.82813 1.82291,-2.18747 4.25,-3.28122 7.28125,-3.28125"
             style="line-height:125%;fill:#257bd1;font-family:DejaVu Sans;-inkscape-font-specification:DejaVu Sans Ultra-Light"
             id="path6597"
             inkscape:connector-curvature="0" />
          <path
             d="m 437.32812,445.11472 0,20.73438 4.625,0 c 3.52082,0 6.09895,-0.83333 7.73438,-2.5 1.64581,-1.66666 2.46873,-4.29687 2.46875,-7.89063 -2e-5,-3.5729 -0.82294,-6.19269 -2.46875,-7.85937 -1.63543,-1.65623 -4.21356,-2.48435 -7.73438,-2.48438 l -4.625,0 m -1.59375,-1.32812 5.73438,0 c 4.24999,2e-5 7.36977,0.94273 9.35937,2.82812 1.98957,1.87502 2.98436,4.81252 2.98438,8.8125 -2e-5,4.02084 -1.00002,6.97397 -3,8.85938 -2.00002,1.88542 -5.1146,2.82812 -9.34375,2.82812 l -5.73438,0 0,-23.32812"
             style="line-height:125%;fill:#257bd1;font-family:DejaVu Sans;-inkscape-font-specification:DejaVu Sans Ultra-Light"
             id="path6599"
             inkscape:connector-curvature="0" />
          <path
             d="m 460.35937,443.7866 13.1875,0 0,1.29687 -11.59375,0 0,8.95313 11.10938,0 0,1.26562 -11.10938,0 0,10.54688 11.875,0 0,1.26562 -13.46875,0 0,-23.32812"
             style="line-height:125%;fill:#257bd1;font-family:DejaVu Sans;-inkscape-font-specification:DejaVu Sans Ultra-Light"
             id="path6601"
             inkscape:connector-curvature="0" />
          <path
             d="m 490.75,443.7866 1.5625,0 0,22.04687 11.35937,0 0,1.28125 -12.92187,0 0,-23.32812"
             style="line-height:125%;fill:#257bd1;font-family:DejaVu Sans;-inkscape-font-specification:DejaVu Sans Ultra-Light"
             id="path6603"
             inkscape:connector-curvature="0" />
          <path
             d="m 516.25,445.36472 -5,13.125 9.92187,0 -4.92187,-13.125 m -1,-1.57812 2.04687,0 8.92188,23.32812 -1.78125,0 -2.78125,-7.32812 -10.89063,0 -2.76562,7.32812 -1.65625,0 8.90625,-23.32812"
             style="line-height:125%;fill:#257bd1;font-family:DejaVu Sans;-inkscape-font-specification:DejaVu Sans Ultra-Light"
             id="path6605"
             inkscape:connector-curvature="0" />
          <path
             d="m 544.20312,444.95847 0,1.46875 c -1.02084,-0.51039 -2.15105,-0.96352 -3.39062,-1.35937 -0.81251,-0.2604 -1.83855,-0.40102 -3.07813,-0.42188 -1.83334,-0.0312 -3.32292,0.37503 -4.46875,1.21875 -1.04167,0.77086 -1.5625,2.09377 -1.5625,3.96875 0,1.15627 0.39583,2.07294 1.1875,2.75 0.84375,0.71877 2.11458,1.29689 3.8125,1.73438 l 1.85938,0.48437 c 1.66665,0.43752 2.95311,0.95835 3.85937,1.5625 1.6979,1.15626 2.54686,2.60939 2.54688,4.35938 -2e-5,2.53125 -0.74481,4.28646 -2.23438,5.26562 -1.62501,1.05209 -3.29167,1.57813 -5,1.57813 -1.78125,0 -3.375,-0.24479 -4.78125,-0.73438 -0.88542,-0.35416 -1.8125,-0.84375 -2.78125,-1.46875 l 0,-1.53125 c 1.45833,0.86459 2.47917,1.41667 3.0625,1.65625 1.30208,0.53125 2.51041,0.79688 3.625,0.79688 1.90624,0 3.48958,-0.42188 4.75,-1.26563 1.18749,-0.79166 1.78124,-2.18228 1.78125,-4.17187 -10e-6,-1.16666 -0.36459,-2.08333 -1.09375,-2.75 -1.05209,-0.96874 -2.41667,-1.65624 -4.09375,-2.0625 l -1.875,-0.45313 c -1.5,-0.36457 -2.77604,-0.87498 -3.82812,-1.53125 -1.59375,-0.99998 -2.39063,-2.36456 -2.39063,-4.09375 0,-2.15623 0.65104,-3.81248 1.95313,-4.96875 1.20833,-1.07289 3.04166,-1.61456 5.5,-1.625 1.4479,3e-5 2.55728,0.12503 3.32812,0.375 1.97916,0.64586 3.08332,1.05211 3.3125,1.21875"
             style="line-height:125%;fill:#257bd1;font-family:DejaVu Sans;-inkscape-font-specification:DejaVu Sans Ultra-Light"
             id="path6607"
             inkscape:connector-curvature="0" />
          <path
             d="m 548.28125,443.7866 18.14062,0 0,1.28125 -8.28125,0 0,22.04687 -1.57812,0 0,-22.04687 -8.28125,0 0,-1.28125"
             style="line-height:125%;fill:#257bd1;font-family:DejaVu Sans;-inkscape-font-specification:DejaVu Sans Ultra-Light"
             id="path6609"
             inkscape:connector-curvature="0" />
          <path
             d="m 565.70312,457.70847 8.42188,0 0,1.28125 -8.42188,0 0,-1.28125"
             style="line-height:125%;fill:#257bd1;font-family:DejaVu Sans;-inkscape-font-specification:DejaVu Sans Ultra-Light"
             id="path6611"
             inkscape:connector-curvature="0" />
          <path
             d="m 580.84375,443.7866 2.17187,0 6.48438,17.29687 6.51562,-17.29687 2.15625,0 0,23.32812 -1.59375,0 0,-20.48437 -6,16 -2.15625,0 -5.98437,-16 0,20.48437 -1.59375,0 0,-23.32812"
             style="line-height:125%;fill:#257bd1;font-family:DejaVu Sans;-inkscape-font-specification:DejaVu Sans Ultra-Light"
             id="path6613"
             inkscape:connector-curvature="0" />
          <path
             d="m 607.14062,443.7866 1.625,0 0,23.32812 -1.625,0 0,-23.32812"
             style="line-height:125%;fill:#257bd1;font-family:DejaVu Sans;-inkscape-font-specification:DejaVu Sans Ultra-Light"
             id="path6615"
             inkscape:connector-curvature="0" />
          <path
             d="m 616.57812,443.7866 2.3125,0 11.3125,21.32812 0,-21.32812 1.5625,0 0,23.32812 -2.21875,0 -11.375,-21.46875 0,21.46875 -1.59375,0 0,-23.32812"
             style="line-height:125%;fill:#257bd1;font-family:DejaVu Sans;-inkscape-font-specification:DejaVu Sans Ultra-Light"
             id="path6617"
             inkscape:connector-curvature="0" />
          <path
             d="m 640.21875,443.7866 1.5625,0 0,14.17187 c -10e-6,2.95834 0.52083,5.08855 1.5625,6.39063 1.03124,1.29167 2.70312,1.9375 5.01562,1.9375 2.30207,0 3.96874,-0.64583 5,-1.9375 1.04165,-1.30208 1.56249,-3.43229 1.5625,-6.39063 l 0,-14.17187 1.5625,0 0,14.5625 c -10e-6,3.04167 -0.68751,5.33854 -2.0625,6.89062 -1.36459,1.55209 -3.38543,2.32813 -6.0625,2.32813 -2.6875,0 -4.71354,-0.77604 -6.07812,-2.32813 -1.375,-1.55208 -2.0625,-3.84895 -2.0625,-6.89062 l 0,-14.5625"
             style="line-height:125%;fill:#257bd1;font-family:DejaVu Sans;-inkscape-font-specification:DejaVu Sans Ultra-Light"
             id="path6619"
             inkscape:connector-curvature="0" />
          <path
             d="m 660.71875,443.7866 18.14062,0 0,1.28125 -8.28125,0 0,22.04687 -1.57812,0 0,-22.04687 -8.28125,0 0,-1.28125"
             style="line-height:125%;fill:#257bd1;font-family:DejaVu Sans;-inkscape-font-specification:DejaVu Sans Ultra-Light"
             id="path6621"
             inkscape:connector-curvature="0" />
          <path
             d="m 683.40625,443.7866 13.1875,0 0,1.29687 -11.59375,0 0,8.95313 11.10937,0 0,1.26562 -11.10937,0 0,10.54688 11.875,0 0,1.26562 -13.46875,0 0,-23.32812"
             style="line-height:125%;fill:#257bd1;font-family:DejaVu Sans;-inkscape-font-specification:DejaVu Sans Ultra-Light"
             id="path6623"
             inkscape:connector-curvature="0" />
        </g>
      </g>
    </g>
  </g>
</svg>
